<?xml version="1.0" encoding="UTF-8" standalone="no"?>
<!-- Created with Inkscape (http://www.inkscape.org/) -->
<svg
   xmlns:dc="http://purl.org/dc/elements/1.1/"
   xmlns:cc="http://web.resource.org/cc/"
   xmlns:rdf="http://www.w3.org/1999/02/22-rdf-syntax-ns#"
   xmlns:svg="http://www.w3.org/2000/svg"
   xmlns="http://www.w3.org/2000/svg"
   xmlns:sodipodi="http://sodipodi.sourceforge.net/DTD/sodipodi-0.dtd"
   xmlns:inkscape="http://www.inkscape.org/namespaces/inkscape"
   width="523.23138"
   height="419.76276"
   id="svg2"
   sodipodi:version="0.32"
   inkscape:version="0.44"
   sodipodi:docbase="C:\Documents and Settings\Oem\Documenti\Immagini\SVG"
   sodipodi:docname="sperner2d.svg"
   version="1.0">
  <defs
     id="defs4" />
  <sodipodi:namedview
     id="base"
     pagecolor="#ffffff"
     bordercolor="#666666"
     borderopacity="1.0"
     inkscape:pageopacity="0.0"
     inkscape:pageshadow="2"
     inkscape:zoom="1.1887665"
     inkscape:cx="391.42857"
     inkscape:cy="210.35205"
     inkscape:document-units="px"
     inkscape:current-layer="layer1"
     inkscape:window-width="1280"
     inkscape:window-height="971"
     inkscape:window-x="-4"
     inkscape:window-y="-4" />
  <metadata
     id="metadata7">
    <rdf:RDF>
      <cc:Work
         rdf:about="">
        <dc:format>image/svg+xml</dc:format>
        <dc:type
           rdf:resource="http://purl.org/dc/dcmitype/StillImage" />
      </cc:Work>
    </rdf:RDF>
  </metadata>
  <g
     inkscape:label="Livello 1"
     inkscape:groupmode="layer"
     id="layer1"
     transform="translate(-131.2285,-127.0333)">
    <path
       style="fill:black;fill-opacity:0.375;fill-rule:evenodd;stroke:none;stroke-width:1px;stroke-linecap:butt;stroke-linejoin:miter;stroke-opacity:1"
       d="M 472.75897,312.94021 L 382.74971,513.98894 L 497.15401,453.42196 L 472.75897,312.94021 z "
       id="path8128"
       sodipodi:nodetypes="cccc" />
    <path
       style="fill:black;fill-opacity:0.375;fill-rule:evenodd;stroke:none;stroke-width:1px;stroke-linecap:butt;stroke-linejoin:miter;stroke-opacity:1"
       d="M 620.8116,514.83015 L 472.75898,312.09899 L 498.83643,455.94558 L 620.8116,514.83015 z "
       id="path8130"
       sodipodi:nodetypes="cccc" />
    <path
       style="fill:black;fill-opacity:0.375;fill-rule:evenodd;stroke:none;stroke-width:1px;stroke-linecap:butt;stroke-linejoin:miter;stroke-opacity:1"
       d="M 204.4136,436.5978 L 165.71803,507.25927 L 377.70247,510.62411 L 204.4136,436.5978 z "
       id="path6356"
       sodipodi:nodetypes="cccc" />
    <path
       style="fill:none;fill-rule:evenodd;stroke:black;stroke-width:1px;stroke-linecap:butt;stroke-linejoin:miter;stroke-opacity:1"
       d="M 360.03706,158.9992 L 164.87678,507.25935 L 624.17639,518.19505 L 360.03706,158.9992 z "
       id="path1874" />
    <path
       style="fill:none;fill-rule:evenodd;stroke:black;stroke-width:1px;stroke-linecap:butt;stroke-linejoin:miter;stroke-opacity:1"
       d="M 382.74968,511.46539 L 252.36242,349.11223 L 471.91773,313.78149 L 382.74968,511.46539 z "
       id="path1876" />
    <path
       style="fill:none;fill-rule:evenodd;stroke:black;stroke-width:1px;stroke-linecap:butt;stroke-linejoin:miter;stroke-opacity:1"
       d="M 622.49398,517.35384 L 495.47156,454.26324 L 383.59088,513.1478"
       id="path1878" />
    <path
       style="fill:none;fill-rule:evenodd;stroke:black;stroke-width:1px;stroke-linecap:butt;stroke-linejoin:miter;stroke-opacity:1"
       d="M 497.99518,453.42203 L 473.60015,312.94028"
       id="path1880" />
    <path
       style="fill:none;fill-rule:evenodd;stroke:black;stroke-width:1px;stroke-linecap:butt;stroke-linejoin:miter;stroke-opacity:1"
       d="M 315.45303,238.07276 L 471.91773,310.41666"
       id="path1882" />
    <path
       style="fill:none;fill-rule:evenodd;stroke:black;stroke-width:1px;stroke-linecap:butt;stroke-linejoin:miter;stroke-opacity:1"
       d="M 203.57236,437.43908 L 381.90847,512.3066"
       id="path1884" />
    <path
       sodipodi:type="arc"
       style="opacity:1;fill:red;fill-opacity:1;fill-rule:nonzero;stroke:black;stroke-width:3;stroke-miterlimit:4;stroke-dasharray:none;stroke-dashoffset:0;stroke-opacity:1"
       id="path1886"
       sodipodi:cx="121.13396"
       sodipodi:cy="153.11075"
       sodipodi:rx="11.776913"
       sodipodi:ry="10.935705"
       d="M 132.91087 153.11075 A 11.776913 10.935705 0 1 1  109.35704,153.11075 A 11.776913 10.935705 0 1 1  132.91087 153.11075 z"
       transform="matrix(0.661777,0,0,0.661777,279.5889,57.67402)" />
    <path
       sodipodi:type="arc"
       style="opacity:1;fill:lime;fill-opacity:1;fill-rule:nonzero;stroke:black;stroke-width:3;stroke-miterlimit:4;stroke-dasharray:none;stroke-dashoffset:0;stroke-opacity:1"
       id="path2775"
       sodipodi:cx="121.13396"
       sodipodi:cy="153.11075"
       sodipodi:rx="11.776913"
       sodipodi:ry="10.935705"
       d="M 132.91087 153.11075 A 11.776913 10.935705 0 1 1  109.35704,153.11075 A 11.776913 10.935705 0 1 1  132.91087 153.11075 z"
       transform="matrix(0.661777,0,0,0.661777,87.23674,403.4105)" />
    <path
       sodipodi:type="arc"
       style="opacity:1;fill:blue;fill-opacity:1;fill-rule:nonzero;stroke:black;stroke-width:3;stroke-miterlimit:4;stroke-dasharray:none;stroke-dashoffset:0;stroke-opacity:1"
       id="path2777"
       sodipodi:cx="121.13396"
       sodipodi:cy="153.11075"
       sodipodi:rx="11.776913"
       sodipodi:ry="10.935705"
       d="M 132.91087 153.11075 A 11.776913 10.935705 0 1 1  109.35704,153.11075 A 11.776913 10.935705 0 1 1  132.91087 153.11075 z"
       transform="matrix(0.661777,0,0,0.661777,539.8067,416.0287)" />
    <path
       sodipodi:type="arc"
       style="opacity:1;fill:red;fill-opacity:1;fill-rule:nonzero;stroke:black;stroke-width:3;stroke-miterlimit:4;stroke-dasharray:none;stroke-dashoffset:0;stroke-opacity:1"
       id="path5434"
       sodipodi:cx="121.13396"
       sodipodi:cy="153.11075"
       sodipodi:rx="11.776913"
       sodipodi:ry="10.935705"
       d="M 132.91087 153.11075 A 11.776913 10.935705 0 1 1  109.35704,153.11075 A 11.776913 10.935705 0 1 1  132.91087 153.11075 z"
       transform="matrix(0.661777,0,0,0.661777,392.5953,209.9327)" />
    <path
       sodipodi:type="arc"
       style="opacity:1;fill:red;fill-opacity:1;fill-rule:nonzero;stroke:black;stroke-width:3;stroke-miterlimit:4;stroke-dasharray:none;stroke-dashoffset:0;stroke-opacity:1"
       id="path5436"
       sodipodi:cx="121.13396"
       sodipodi:cy="153.11075"
       sodipodi:rx="11.776913"
       sodipodi:ry="10.935705"
       d="M 132.91087 153.11075 A 11.776913 10.935705 0 1 1  109.35704,153.11075 A 11.776913 10.935705 0 1 1  132.91087 153.11075 z"
       transform="matrix(0.661777,0,0,0.661777,173.8811,246.9459)" />
    <path
       sodipodi:type="arc"
       style="opacity:1;fill:red;fill-opacity:1;fill-rule:nonzero;stroke:black;stroke-width:3;stroke-miterlimit:4;stroke-dasharray:none;stroke-dashoffset:0;stroke-opacity:1"
       id="path5438"
       sodipodi:cx="121.13396"
       sodipodi:cy="153.11075"
       sodipodi:rx="11.776913"
       sodipodi:ry="10.935705"
       d="M 132.91087 153.11075 A 11.776913 10.935705 0 1 1  109.35704,153.11075 A 11.776913 10.935705 0 1 1  132.91087 153.11075 z"
       transform="matrix(0.661777,0,0,0.661777,125.0911,335.2727)" />
    <path
       sodipodi:type="arc"
       style="opacity:1;fill:lime;fill-opacity:1;fill-rule:nonzero;stroke:black;stroke-width:3;stroke-miterlimit:4;stroke-dasharray:none;stroke-dashoffset:0;stroke-opacity:1"
       id="path5442"
       sodipodi:cx="121.13396"
       sodipodi:cy="153.11075"
       sodipodi:rx="11.776913"
       sodipodi:ry="10.935705"
       d="M 132.91087 153.11075 A 11.776913 10.935705 0 1 1  109.35704,153.11075 A 11.776913 10.935705 0 1 1  132.91087 153.11075 z"
       transform="matrix(0.661777,0,0,0.661777,236.1305,135.0652)" />
    <path
       sodipodi:type="arc"
       style="opacity:1;fill:blue;fill-opacity:1;fill-rule:nonzero;stroke:black;stroke-width:3;stroke-miterlimit:4;stroke-dasharray:none;stroke-dashoffset:0;stroke-opacity:1"
       id="path5444"
       sodipodi:cx="121.13396"
       sodipodi:cy="153.11075"
       sodipodi:rx="11.776913"
       sodipodi:ry="10.935705"
       d="M 132.91087 153.11075 A 11.776913 10.935705 0 1 1  109.35704,153.11075 A 11.776913 10.935705 0 1 1  132.91087 153.11075 z"
       transform="matrix(0.661777,0,0,0.661777,302.586,411.8226)" />
    <path
       sodipodi:type="arc"
       style="opacity:1;fill:lime;fill-opacity:1;fill-rule:nonzero;stroke:black;stroke-width:3;stroke-miterlimit:4;stroke-dasharray:none;stroke-dashoffset:0;stroke-opacity:1"
       id="path5446"
       sodipodi:cx="121.13396"
       sodipodi:cy="153.11075"
       sodipodi:rx="11.776913"
       sodipodi:ry="10.935705"
       d="M 132.91087 153.11075 A 11.776913 10.935705 0 1 1  109.35704,153.11075 A 11.776913 10.935705 0 1 1  132.91087 153.11075 z"
       transform="matrix(0.661777,0,0,0.661777,418.6727,352.9381)" />
    <rect
       style="opacity:1;fill:none;fill-opacity:1;fill-rule:nonzero;stroke:none;stroke-width:3;stroke-miterlimit:4;stroke-dasharray:none;stroke-dashoffset:0;stroke-opacity:1"
       id="rect5469"
       width="523.23138"
       height="419.76276"
       x="131.22845"
       y="127.0333" />
  </g>
</svg>
